{
    "asset" : {
        "generator" : "Khronos glTF Blender I/O v1.4.40",
        "version" : "2.0"
    },
    "scene" : 0,
    "scenes" : [
        {
            "name" : "Scene",
            "nodes" : [
                0,
                1,
                2,
                3,
                4,
                5,
                6,
                7,
                8
            ]
        }
    ],
    "nodes" : [
        {
            "name" : "Light",
            "rotation" : [
                0.16907575726509094,
                0.7558803558349609,
                -0.27217137813568115,
                0.570947527885437
            ],
            "translation" : [
                4.076245307922363,
                5.903861999511719,
                -1.0054539442062378
            ]
        },
        {
            "name" : "Camera",
            "rotation" : [
                0.483536034822464,
                0.33687159419059753,
                -0.20870360732078552,
                0.7804827094078064
            ],
            "translation" : [
                7.358891487121582,
                4.958309173583984,
                6.925790786743164
            ]
        },
        {
            "mesh" : 0,
            "name" : "Cube.001",
            "scale" : [
                2.5,
                0.625,
                2.5
            ],
            "translation" : [
                -11.629364967346191,
                0,
                0
            ]
        },
        {
            "name" : "Light.001",
            "rotation" : [
                0.16907575726509094,
                0.7558803558349609,
                -0.27217137813568115,
                0.570947527885437
            ],
            "translation" : [
                -7.31793212890625,
                5.904732704162598,
                -2.307734966278076
            ]
        },
        {
            "mesh" : 1,
            "name" : "Cube.002",
            "scale" : [
                2.5,
                0.625,
                2.5
            ],
            "translation" : [
                0,
                0,
                10.033668518066406
            ]
        },
        {
            "mesh" : 2,
            "name" : "Cube.003",
            "scale" : [
                2.5,
                0.625,
                2.5
            ],
            "translation" : [
                0,
                0,
                21.988849639892578
            ]
        },
        {
            "mesh" : 3,
            "name" : "Cube.005",
            "scale" : [
                2.5,
                4,
                2.5
            ],
            "translation" : [
                13.75271987915039,
                0,
                0
            ]
        },
        {
            "mesh" : 4,
            "name" : "Cube.006",
            "scale" : [
                2.5,
                4,
                2.5
            ],
            "translation" : [
                26.694276809692383,
                0,
                0
            ]
        },
        {
            "mesh" : 5,
            "name" : "Cube.004",
            "scale" : [
                2.5,
                4,
                2.5
            ]
        }
    ],
    "materials" : [
        {
            "doubleSided" : true,
            "name" : "Material",
            "pbrMetallicRoughness" : {
                "baseColorFactor" : [
                    0.09462753683328629,
                    0.09462753683328629,
                    0.09462753683328629,
                    1
                ],
                "metallicFactor" : 0,
                "roughnessFactor" : 0.4000000059604645
            }
        },
        {
            "doubleSided" : true,
            "name" : "Material.001",
            "pbrMetallicRoughness" : {
                "baseColorFactor" : [
                    0.8000000715255737,
                    0.2602596879005432,
                    0,
                    1
                ],
                "metallicFactor" : 0,
                "roughnessFactor" : 0.5
            }
        }
    ],
    "meshes" : [
        {
            "name" : "Cube.001",
            "primitives" : [
                {
                    "attributes" : {
                        "POSITION" : 0,
                        "NORMAL" : 1,
                        "TEXCOORD_0" : 2
                    },
                    "indices" : 3,
                    "material" : 0
                }
            ]
        },
        {
            "name" : "Cube.002",
            "primitives" : [
                {
                    "attributes" : {
                        "POSITION" : 4,
                        "NORMAL" : 5,
                        "TEXCOORD_0" : 6
                    },
                    "indices" : 7,
                    "material" : 0
                },
                {
                    "attributes" : {
                        "POSITION" : 8,
                        "NORMAL" : 9,
                        "TEXCOORD_0" : 10
                    },
                    "indices" : 11,
                    "material" : 1
                }
            ]
        },
        {
            "name" : "Cube.003",
            "primitives" : [
                {
                    "attributes" : {
                        "POSITION" : 12,
                        "NORMAL" : 13,
                        "TEXCOORD_0" : 14
                    },
                    "indices" : 15,
                    "material" : 0
                },
                {
                    "attributes" : {
                        "POSITION" : 16,
                        "NORMAL" : 17,
                        "TEXCOORD_0" : 18
                    },
                    "indices" : 19,
                    "material" : 1
                }
            ]
        },
        {
            "name" : "Cube.005",
            "primitives" : [
                {
                    "attributes" : {
                        "POSITION" : 20,
                        "NORMAL" : 21,
                        "TEXCOORD_0" : 22
                    },
                    "indices" : 23,
                    "material" : 0
                },
                {
                    "attributes" : {
                        "POSITION" : 24,
                        "NORMAL" : 25,
                        "TEXCOORD_0" : 26
                    },
                    "indices" : 27,
                    "material" : 1
                }
            ]
        },
        {
            "name" : "Cube.006",
            "primitives" : [
                {
                    "attributes" : {
                        "POSITION" : 28,
                        "NORMAL" : 29,
                        "TEXCOORD_0" : 30
                    },
                    "indices" : 31,
                    "material" : 0
                },
                {
                    "attributes" : {
                        "POSITION" : 32,
                        "NORMAL" : 33,
                        "TEXCOORD_0" : 34
                    },
                    "indices" : 35,
                    "material" : 1
                }
            ]
        },
        {
            "name" : "Cube.007",
            "primitives" : [
                {
                    "attributes" : {
                        "POSITION" : 36,
                        "NORMAL" : 37,
                        "TEXCOORD_0" : 38
                    },
                    "indices" : 39,
                    "material" : 0
                },
                {
                    "attributes" : {
                        "POSITION" : 40,
                        "NORMAL" : 41,
                        "TEXCOORD_0" : 42
                    },
                    "indices" : 43,
                    "material" : 1
                }
            ]
        }
    ],
    "accessors" : [
        {
            "bufferView" : 0,
            "componentType" : 5126,
            "count" : 24,
            "max" : [
                1,
                1,
                1
            ],
            "min" : [
                -1,
                -1,
                -1
            ],
            "type" : "VEC3"
        },
        {
            "bufferView" : 1,
            "componentType" : 5126,
            "count" : 24,
            "type" : "VEC3"
        },
        {
            "bufferView" : 2,
            "componentType" : 5126,
            "count" : 24,
            "type" : "VEC2"
        },
        {
            "bufferView" : 3,
            "componentType" : 5123,
            "count" : 36,
            "type" : "SCALAR"
        },
        {
            "bufferView" : 4,
            "componentType" : 5126,
            "count" : 175,
            "max" : [
                1,
                1,
                1
            ],
            "min" : [
                -1,
                -1,
                -1
            ],
            "type" : "VEC3"
        },
        {
            "bufferView" : 5,
            "componentType" : 5126,
            "count" : 175,
            "type" : "VEC3"
        },
        {
            "bufferView" : 6,
            "componentType" : 5126,
            "count" : 175,
            "type" : "VEC2"
        },
        {
            "bufferView" : 7,
            "componentType" : 5123,
            "count" : 564,
            "type" : "SCALAR"
        },
        {
            "bufferView" : 8,
            "componentType" : 5126,
            "count" : 24,
            "max" : [
                1,
                1,
                1
            ],
            "min" : [
                -1,
                1,
                -1
            ],
            "type" : "VEC3"
        },
        {
            "bufferView" : 9,
            "componentType" : 5126,
            "count" : 24,
            "type" : "VEC3"
        },
        {
            "bufferView" : 10,
            "componentType" : 5126,
            "count" : 24,
            "type" : "VEC2"
        },
        {
            "bufferView" : 11,
            "componentType" : 5123,
            "count" : 60,
            "type" : "SCALAR"
        },
        {
            "bufferView" : 12,
            "componentType" : 5126,
            "count" : 183,
            "max" : [
                1.4999998807907104,
                1,
                1
            ],
            "min" : [
                -1,
                -1,
                -1
            ],
            "type" : "VEC3"
        },
        {
            "bufferView" : 13,
            "componentType" : 5126,
            "count" : 183,
            "type" : "VEC3"
        },
        {
            "bufferView" : 14,
            "componentType" : 5126,
            "count" : 183,
            "type" : "VEC2"
        },
        {
            "bufferView" : 15,
            "componentType" : 5123,
            "count" : 561,
            "type" : "SCALAR"
        },
        {
            "bufferView" : 16,
            "componentType" : 5126,
            "count" : 25,
            "max" : [
                1.4999998807907104,
                1,
                1
            ],
            "min" : [
                -1,
                -1,
                -1
            ],
            "type" : "VEC3"
        },
        {
            "bufferView" : 17,
            "componentType" : 5126,
            "count" : 25,
            "type" : "VEC3"
        },
        {
            "bufferView" : 18,
            "componentType" : 5126,
            "count" : 25,
            "type" : "VEC2"
        },
        {
            "bufferView" : 19,
            "componentType" : 5123,
            "count" : 57,
            "type" : "SCALAR"
        },
        {
            "bufferView" : 20,
            "componentType" : 5126,
            "count" : 137,
            "max" : [
                1,
                1,
                1
            ],
            "min" : [
                -1,
                -0.5,
                -1
            ],
            "type" : "VEC3"
        },
        {
            "bufferView" : 21,
            "componentType" : 5126,
            "count" : 137,
            "type" : "VEC3"
        },
        {
            "bufferView" : 22,
            "componentType" : 5126,
            "count" : 137,
            "type" : "VEC2"
        },
        {
            "bufferView" : 23,
            "componentType" : 5123,
            "count" : 276,
            "type" : "SCALAR"
        },
        {
            "bufferView" : 24,
            "componentType" : 5126,
            "count" : 161,
            "max" : [
                1,
                1,
                1
            ],
            "min" : [
                -1,
                -0.5,
                -1
            ],
            "type" : "VEC3"
        },
        {
            "bufferView" : 25,
            "componentType" : 5126,
            "count" : 161,
            "type" : "VEC3"
        },
        {
            "bufferView" : 26,
            "componentType" : 5126,
            "count" : 161,
            "type" : "VEC2"
        },
        {
            "bufferView" : 27,
            "componentType" : 5123,
            "count" : 348,
            "type" : "SCALAR"
        },
        {
            "bufferView" : 28,
            "componentType" : 5126,
            "count" : 155,
            "max" : [
                2.6322426795959473,
                1,
                1
            ],
            "min" : [
                -1,
                -0.5,
                -1
            ],
            "type" : "VEC3"
        },
        {
            "bufferView" : 29,
            "componentType" : 5126,
            "count" : 155,
            "type" : "VEC3"
        },
        {
            "bufferView" : 30,
            "componentType" : 5126,
            "count" : 155,
            "type" : "VEC2"
        },
        {
            "bufferView" : 31,
            "componentType" : 5123,
            "count" : 276,
            "type" : "SCALAR"
        },
        {
            "bufferView" : 32,
            "componentType" : 5126,
            "count" : 194,
            "max" : [
                2.6322426795959473,
                1,
                1
            ],
            "min" : [
                -1,
                -0.5,
                -1
            ],
            "type" : "VEC3"
        },
        {
            "bufferView" : 33,
            "componentType" : 5126,
            "count" : 194,
            "type" : "VEC3"
        },
        {
            "bufferView" : 34,
            "componentType" : 5126,
            "count" : 194,
            "type" : "VEC2"
        },
        {
            "bufferView" : 35,
            "componentType" : 5123,
            "count" : 348,
            "type" : "SCALAR"
        },
        {
            "bufferView" : 36,
            "componentType" : 5126,
            "count" : 549,
            "max" : [
                1,
                2.5002682209014893,
                1.0088167190551758
            ],
            "min" : [
                -2.998900890350342,
                -0.5,
                -1
            ],
            "type" : "VEC3"
        },
        {
            "bufferView" : 37,
            "componentType" : 5126,
            "count" : 549,
            "type" : "VEC3"
        },
        {
            "bufferView" : 38,
            "componentType" : 5126,
            "count" : 549,
            "type" : "VEC2"
        },
        {
            "bufferView" : 39,
            "componentType" : 5123,
            "count" : 1104,
            "type" : "SCALAR"
        },
        {
            "bufferView" : 40,
            "componentType" : 5126,
            "count" : 702,
            "max" : [
                1,
                2.5002682209014893,
                1.0088167190551758
            ],
            "min" : [
                -2.998900890350342,
                -0.5,
                -1
            ],
            "type" : "VEC3"
        },
        {
            "bufferView" : 41,
            "componentType" : 5126,
            "count" : 702,
            "type" : "VEC3"
        },
        {
            "bufferView" : 42,
            "componentType" : 5126,
            "count" : 702,
            "type" : "VEC2"
        },
        {
            "bufferView" : 43,
            "componentType" : 5123,
            "count" : 1392,
            "type" : "SCALAR"
        }
    ],
    "bufferViews" : [
        {
            "buffer" : 0,
            "byteLength" : 288,
            "byteOffset" : 0
        },
        {
            "buffer" : 0,
            "byteLength" : 288,
            "byteOffset" : 288
        },
        {
            "buffer" : 0,
            "byteLength" : 192,
            "byteOffset" : 576
        },
        {
            "buffer" : 0,
            "byteLength" : 72,
            "byteOffset" : 768
        },
        {
            "buffer" : 0,
            "byteLength" : 2100,
            "byteOffset" : 840
        },
        {
            "buffer" : 0,
            "byteLength" : 2100,
            "byteOffset" : 2940
        },
        {
            "buffer" : 0,
            "byteLength" : 1400,
            "byteOffset" : 5040
        },
        {
            "buffer" : 0,
            "byteLength" : 1128,
            "byteOffset" : 6440
        },
        {
            "buffer" : 0,
            "byteLength" : 288,
            "byteOffset" : 7568
        },
        {
            "buffer" : 0,
            "byteLength" : 288,
            "byteOffset" : 7856
        },
        {
            "buffer" : 0,
            "byteLength" : 192,
            "byteOffset" : 8144
        },
        {
            "buffer" : 0,
            "byteLength" : 120,
            "byteOffset" : 8336
        },
        {
            "buffer" : 0,
            "byteLength" : 2196,
            "byteOffset" : 8456
        },
        {
            "buffer" : 0,
            "byteLength" : 2196,
            "byteOffset" : 10652
        },
        {
            "buffer" : 0,
            "byteLength" : 1464,
            "byteOffset" : 12848
        },
        {
            "buffer" : 0,
            "byteLength" : 1122,
            "byteOffset" : 14312
        },
        {
            "buffer" : 0,
            "byteLength" : 300,
            "byteOffset" : 15436
        },
        {
            "buffer" : 0,
            "byteLength" : 300,
            "byteOffset" : 15736
        },
        {
            "buffer" : 0,
            "byteLength" : 200,
            "byteOffset" : 16036
        },
        {
            "buffer" : 0,
            "byteLength" : 114,
            "byteOffset" : 16236
        },
        {
            "buffer" : 0,
            "byteLength" : 1644,
            "byteOffset" : 16352
        },
        {
            "buffer" : 0,
            "byteLength" : 1644,
            "byteOffset" : 17996
        },
        {
            "buffer" : 0,
            "byteLength" : 1096,
            "byteOffset" : 19640
        },
        {
            "buffer" : 0,
            "byteLength" : 552,
            "byteOffset" : 20736
        },
        {
            "buffer" : 0,
            "byteLength" : 1932,
            "byteOffset" : 21288
        },
        {
            "buffer" : 0,
            "byteLength" : 1932,
            "byteOffset" : 23220
        },
        {
            "buffer" : 0,
            "byteLength" : 1288,
            "byteOffset" : 25152
        },
        {
            "buffer" : 0,
            "byteLength" : 696,
            "byteOffset" : 26440
        },
        {
            "buffer" : 0,
            "byteLength" : 1860,
            "byteOffset" : 27136
        },
        {
            "buffer" : 0,
            "byteLength" : 1860,
            "byteOffset" : 28996
        },
        {
            "buffer" : 0,
            "byteLength" : 1240,
            "byteOffset" : 30856
        },
        {
            "buffer" : 0,
            "byteLength" : 552,
            "byteOffset" : 32096
        },
        {
            "buffer" : 0,
            "byteLength" : 2328,
            "byteOffset" : 32648
        },
        {
            "buffer" : 0,
            "byteLength" : 2328,
            "byteOffset" : 34976
        },
        {
            "buffer" : 0,
            "byteLength" : 1552,
            "byteOffset" : 37304
        },
        {
            "buffer" : 0,
            "byteLength" : 696,
            "byteOffset" : 38856
        },
        {
            "buffer" : 0,
            "byteLength" : 6588,
            "byteOffset" : 39552
        },
        {
            "buffer" : 0,
            "byteLength" : 6588,
            "byteOffset" : 46140
        },
        {
            "buffer" : 0,
            "byteLength" : 4392,
            "byteOffset" : 52728
        },
        {
            "buffer" : 0,
            "byteLength" : 2208,
            "byteOffset" : 57120
        },
        {
            "buffer" : 0,
            "byteLength" : 8424,
            "byteOffset" : 59328
        },
        {
            "buffer" : 0,
            "byteLength" : 8424,
            "byteOffset" : 67752
        },
        {
            "buffer" : 0,
            "byteLength" : 5616,
            "byteOffset" : 76176
        },
        {
            "buffer" : 0,
            "byteLength" : 2784,
            "byteOffset" : 81792
        }
    ],
    "buffers" : [
        {
            "byteLength" : 84576,
            "uri" : "data:application/octet-stream;base64,"
        }
    ]
}
