{
    "asset" : {
        "generator" : "Khronos glTF Blender I/O v1.4.40",
        "version" : "2.0"
    },
    "scene" : 0,
    "scenes" : [
        {
            "name" : "Scene",
            "nodes" : [
                0
            ]
        }
    ],
    "nodes" : [
        {
            "mesh" : 0,
            "name" : "Text"
        }
    ],
    "materials" : [
        {
            "doubleSided" : true,
            "emissiveFactor" : [
                1,
                0.1950198858976364,
                0.020013069733977318
            ],
            "name" : "Material.001",
            "pbrMetallicRoughness" : {}
        }
    ],
    "meshes" : [
        {
            "name" : "Text",
            "primitives" : [
                {
                    "attributes" : {
                        "POSITION" : 0,
                        "NORMAL" : 1,
                        "TEXCOORD_0" : 2
                    },
                    "indices" : 3,
                    "material" : 0
                }
            ]
        }
    ],
    "accessors" : [
        {
            "bufferView" : 0,
            "componentType" : 5126,
            "count" : 16067,
            "max" : [
                12.418909072875977,
                0.05999999865889549,
                0.05566851794719696
            ],
            "min" : [
                0.09224003553390503,
                -0.05999999865889549,
                -1.226680040359497
            ],
            "type" : "VEC3"
        },
        {
            "bufferView" : 1,
            "componentType" : 5126,
            "count" : 16067,
            "type" : "VEC3"
        },
        {
            "bufferView" : 2,
            "componentType" : 5126,
            "count" : 16067,
            "type" : "VEC2"
        },
        {
            "bufferView" : 3,
            "componentType" : 5123,
            "count" : 69240,
            "type" : "SCALAR"
        }
    ],
    "bufferViews" : [
        {
            "buffer" : 0,
            "byteLength" : 192804,
            "byteOffset" : 0
        },
        {
            "buffer" : 0,
            "byteLength" : 192804,
            "byteOffset" : 192804
        },
        {
            "buffer" : 0,
            "byteLength" : 128536,
            "byteOffset" : 385608
        },
        {
            "buffer" : 0,
            "byteLength" : 138480,
            "byteOffset" : 514144
        }
    ],
    "buffers" : [
        {
            "byteLength" : 652624,
            "uri" : "data:application/octet-stream;base64,"
        }
    ]
}
