{
    "asset" : {
        "generator" : "Khronos glTF Blender I/O v1.4.40",
        "version" : "2.0"
    },
    "scene" : 0,
    "scenes" : [
        {
            "name" : "Scene",
            "nodes" : [
                0,
                1
            ]
        }
    ],
    "nodes" : [
        {
            "mesh" : 0,
            "name" : "Text"
        },
        {
            "name" : "Camera",
            "rotation" : [
                -0.09208596497774124,
                -0.1358964592218399,
                -0.013269953429698944,
                0.9863449931144714
            ],
            "translation" : [
                6.045778751373291,
                13.864378929138184,
                7.968975067138672
            ]
        }
    ],
    "materials" : [
        {
            "doubleSided" : true,
            "name" : "Material.001",
            "pbrMetallicRoughness" : {}
        }
    ],
    "meshes" : [
        {
            "name" : "Text",
            "primitives" : [
                {
                    "attributes" : {
                        "POSITION" : 0,
                        "NORMAL" : 1,
                        "TEXCOORD_0" : 2
                    },
                    "indices" : 3,
                    "material" : 0
                }
            ]
        }
    ],
    "accessors" : [
        {
            "bufferView" : 0,
            "componentType" : 5126,
            "count" : 14635,
            "max" : [
                10.465386390686035,
                0.060070812702178955,
                8.177268028259277
            ],
            "min" : [
                -0.00327408779412508,
                -0.05999993532896042,
                -0.5865294337272644
            ],
            "type" : "VEC3"
        },
        {
            "bufferView" : 1,
            "componentType" : 5126,
            "count" : 14635,
            "type" : "VEC3"
        },
        {
            "bufferView" : 2,
            "componentType" : 5126,
            "count" : 14635,
            "type" : "VEC2"
        },
        {
            "bufferView" : 3,
            "componentType" : 5123,
            "count" : 28710,
            "type" : "SCALAR"
        }
    ],
    "bufferViews" : [
        {
            "buffer" : 0,
            "byteLength" : 175620,
            "byteOffset" : 0
        },
        {
            "buffer" : 0,
            "byteLength" : 175620,
            "byteOffset" : 175620
        },
        {
            "buffer" : 0,
            "byteLength" : 117080,
            "byteOffset" : 351240
        },
        {
            "buffer" : 0,
            "byteLength" : 57420,
            "byteOffset" : 468320
        }
    ],
    "buffers" : [
        {
            "byteLength" : 525740,
            "uri" : "data:application/octet-stream;base64,"
        }
    ]
}
