{
    "asset" : {
        "generator" : "Khronos glTF Blender I/O v1.4.40",
        "version" : "2.0"
    },
    "scene" : 0,
    "scenes" : [
        {
            "name" : "Scene",
            "nodes" : [
                0
            ]
        }
    ],
    "nodes" : [
        {
            "mesh" : 0,
            "name" : "Icosphere"
        }
    ],
    "materials" : [
        {
            "doubleSided" : true,
            "emissiveFactor" : [
                0,
                1,
                0.6743735074996948
            ],
            "name" : "Material.001",
            "pbrMetallicRoughness" : {}
        },
        {
            "doubleSided" : true,
            "name" : "Material.002",
            "pbrMetallicRoughness" : {}
        }
    ],
    "meshes" : [
        {
            "name" : "Icosphere",
            "primitives" : [
                {
                    "attributes" : {
                        "POSITION" : 0,
                        "NORMAL" : 1,
                        "TEXCOORD_0" : 2
                    },
                    "indices" : 3,
                    "material" : 0
                },
                {
                    "attributes" : {
                        "POSITION" : 4,
                        "NORMAL" : 5,
                        "TEXCOORD_0" : 6
                    },
                    "indices" : 7,
                    "material" : 1
                }
            ]
        }
    ],
    "accessors" : [
        {
            "bufferView" : 0,
            "componentType" : 5126,
            "count" : 7680,
            "max" : [
                1.544561743736267,
                1.5400114059448242,
                1.5443530082702637
            ],
            "min" : [
                -1.5445618629455566,
                -1.5400114059448242,
                -1.5443530082702637
            ],
            "type" : "VEC3"
        },
        {
            "bufferView" : 1,
            "componentType" : 5126,
            "count" : 7680,
            "type" : "VEC3"
        },
        {
            "bufferView" : 2,
            "componentType" : 5126,
            "count" : 7680,
            "type" : "VEC2"
        },
        {
            "bufferView" : 3,
            "componentType" : 5123,
            "count" : 11520,
            "type" : "SCALAR"
        },
        {
            "bufferView" : 4,
            "componentType" : 5126,
            "count" : 960,
            "max" : [
                1.5199998617172241,
                1.5199999809265137,
                1.5199999809265137
            ],
            "min" : [
                -1.5199999809265137,
                -1.5199999809265137,
                -1.5199999809265137
            ],
            "type" : "VEC3"
        },
        {
            "bufferView" : 5,
            "componentType" : 5126,
            "count" : 960,
            "type" : "VEC3"
        },
        {
            "bufferView" : 6,
            "componentType" : 5126,
            "count" : 960,
            "type" : "VEC2"
        },
        {
            "bufferView" : 7,
            "componentType" : 5123,
            "count" : 960,
            "type" : "SCALAR"
        }
    ],
    "bufferViews" : [
        {
            "buffer" : 0,
            "byteLength" : 92160,
            "byteOffset" : 0
        },
        {
            "buffer" : 0,
            "byteLength" : 92160,
            "byteOffset" : 92160
        },
        {
            "buffer" : 0,
            "byteLength" : 61440,
            "byteOffset" : 184320
        },
        {
            "buffer" : 0,
            "byteLength" : 23040,
            "byteOffset" : 245760
        },
        {
            "buffer" : 0,
            "byteLength" : 11520,
            "byteOffset" : 268800
        },
        {
            "buffer" : 0,
            "byteLength" : 11520,
            "byteOffset" : 280320
        },
        {
            "buffer" : 0,
            "byteLength" : 7680,
            "byteOffset" : 291840
        },
        {
            "buffer" : 0,
            "byteLength" : 1920,
            "byteOffset" : 299520
        }
    ],
    "buffers" : [
        {
            "byteLength" : 301440,
            "uri" : "data:application/octet-stream;base64,"
        }
    ]
}
